{"title":"The.Little.Girl.Who.Lives.Down.the.Lane.1976.DVDRip.XviD-XTEND","uid":7476061,"size":745965469,"categoryP":"video","categoryS":"movies","magnet":"?xt=urn:btih:e75443ba9729d5e232282cf3c2b0bcace0bd6a45&amp;dn=The.Little.Girl.Who.Lives.Down.the.Lane.1976.DVDRip.XviD-XTEND&amp;tr=udp%3A%2F%2Ftracker.openbittorrent.com%3A80&amp;tr=udp%3A%2F%2Fopen.demonii.com%3A1337&amp;tr=udp%3A%2F%2Ftracker.coppersurfer.tk%3A6969&amp;tr=udp%3A%2F%2Fexodus.desync.com%3A6969","seeders":1,"leechers":0,"uploader":null,"files":-1,"time":1343295042,"description":"Format                         : AVI\nFormat/Info                    : Audio Video Interleave\nFile size                      : 697 MiB\nDuration                       : 1h 28mn\nOverall bit rate mode          : Variable\nOverall bit rate               : 1 100 Kbps\nWriting application            : VirtualDubMod 1.5.4.1 (build 2178/release)\nWriting library                : VirtualDubMod build 2178/release\n\nVideo\nID                             : 0\nFormat                         : MPEG-4 Visual\nFormat profile                 : Advanced Simple@L5\nFormat settings, BVOP          : 1\nFormat settings, QPel          : No\nFormat settings, GMC           : No warppoints\nFormat settings, Matrix        : Custom\nCodec ID                       : XVID\nCodec ID/Hint                  : XviD\nDuration                       : 1h 28mn\nBit rate                       : 984 Kbps\nWidth                          : 640 pixels\nHeight                         : 352 pixels\nDisplay aspect ratio           : 16:9\nFrame rate                     : 25.000 fps\nColor space                    : YUV\nChroma subsampling             : 4:2:0\nBit depth                      : 8 bits\nScan type                      : Progressive\nCompression mode               : Lossy\nBits/(Pixel*Frame)             : 0.175\nStream size                    : 624 MiB (90%)\nWriting library                : XviD 64\n\nAudio\nID                             : 1\nFormat                         : MPEG Audio\nFormat version                 : Version 1\nFormat profile                 : Layer 3\nMode                           : Joint stereo\nMode extension                 : MS Stereo\nCodec ID                       : 55\nCodec ID/Hint                  : MP3\nDuration                       : 1h 28mn\nBit rate mode                  : Variable\nBit rate                       : 103 Kbps\nNominal bit rate               : 128 Kbps\nChannel(s)                     : 2 channels\nSampling rate                  : 48.0 KHz\nCompression mode               : Lossy\nStream size                    : 64.9 MiB (9%)\nAlignment                      : Aligned on interleaves\nInterleave, duration           : 24 ms (0.60 video frame)\nInterleave, preload duration   : 492 ms\nWriting library                : LAME3.98r\nEncoding settings              : -m j -V 4 -q 2 -lowpass 17 --abr 128\nLanguage                       : English\n\nSubtitles\t\t       : Danish, Swedish, Norwegian  Finnish\n\n &lt;a href=&quot;\nhttp://www.imdb.com/title/tt0074806/&quot; rel=&quot;nofollow&quot; target=&quot;_NEW&quot;&gt;\nhttp://www.imdb.com/title/tt0074806/&lt;/a&gt;","torrent":{"xt":"urn:btih:e75443ba9729d5e232282cf3c2b0bcace0bd6a45","amp;dn":"The.Little.Girl.Who.Lives.Down.the.Lane.1976.DVDRip.XviD-XTEND","amp;tr":["udp%3A%2F%2Ftracker.openbittorrent.com%3A80","udp%3A%2F%2Fopen.demonii.com%3A1337","udp%3A%2F%2Ftracker.coppersurfer.tk%3A6969","udp%3A%2F%2Fexodus.desync.com%3A6969"],"infoHash":"e75443ba9729d5e232282cf3c2b0bcace0bd6a45","infoHashBuffer":{"type":"Buffer","data":[231,84,67,186,151,41,213,226,50,40,44,243,194,176,188,172,224,189,106,69]},"announce":[],"urlList":[]}}